# xmcd
#
# Track frame offsets: 
#        150
#        31573
#        59030
#        101215
#        121455
#        177770
#        204890
#        242408
#        284740
#        305610
#
# Disc length: 4263 seconds
#
# Revision: 2
# Processed by: cddbd v1.5.2PL0 Copyright (c) Steve Scherf et al.
# Submitted via: ExactAudioCopy v0.99pb4
#
DISCID=8b10a50a
DTITLE=Magic Slim - Magic Slim Live
DYEAR=1989
DGENRE=
TTITLE0=My Buddy Buddy Friends
TTITLE1=Highway Is My Home
TTITLE2='Possum In My Tree
TTITLE3=She Belongs To Me
TTITLE4=Not The Same Person
TTITLE5=Let Me Love You Baby
TTITLE6=Mustang Sally
TTITLE7=Cold Women With Warm Hearts
TTITLE8=Reelin' And Rockin'
TTITLE9=Hide Away
EXTD=
EXTT0=
EXTT1=
EXTT2=
EXTT3=
EXTT4=
EXTT5=
EXTT6=
EXTT7=
EXTT8=
EXTT9=
PLAYORDER=
